<svg id="Layer_1" xmlns="http://www.w3.org/2000/svg" viewBox="0 0 110 31" enable-background="new 0 0 110 31"><g><g><path id="path-1_9_" fill="#FFF" d="M0 31h110V0H4.2L0 31z"/></g><g id="Page-1_1_"><g id="pp_fc_hl_1_"><g id="pp_h_rgb_1_"><path id="Fill-1_1_" fill="#2790C3" d="M70.6 15.4c-.2 1.5-1.3 1.5-2.4 1.5h-.6l.4-2.7c0-.2.2-.3.3-.3h.3c.7 0 1.4 0 1.8.4.2.2.2.6.2 1.1zm-.6-3.7h-4.1c-.3 0-.5.2-.6.5l-1.6 10.3c0 .2.1.4.3.4h2.2c.2 0 .4-.1.4-.3l.4-2.8c0-.3.3-.5.6-.5h1.3c2.7 0 4.2-1.3 4.6-3.9.2-1.1 0-2-.5-2.6-.6-.7-1.6-1.1-3-1.1z"/><path id="Fill-2_1_" fill="#27346A" d="M41.6 15.4c-.2 1.5-1.3 1.5-2.4 1.5h-.6l.4-2.7c0-.2.2-.3.3-.3h.3c.7 0 1.4 0 1.8.4.2.2.3.6.2 1.1zm-.6-3.7h-4.1c-.3 0-.5.2-.6.5l-1.6 10.3c0 .2.1.4.3.4h2c.3 0 .5-.2.6-.5l.4-2.7c0-.3.3-.5.6-.5h1.3c2.7 0 4.2-1.3 4.6-3.9.2-1.1 0-2-.5-2.6-.6-.6-1.6-1-3-1z"/><path id="Fill-3_1_" fill="#27346A" d="M50.4 19.2c-.2 1.1-1.1 1.9-2.2 1.9-.6 0-1-.2-1.3-.5-.3-.3-.4-.8-.3-1.4.2-1.1 1.1-1.9 2.2-1.9.6 0 1 .2 1.3.5.3.4.4.9.3 1.4zm2.8-3.8h-2c-.1 0-.2.1-.2.2l-.1.6-.3-.2c-.4-.6-1.4-.8-2.3-.8-2.2 0-4 1.6-4.4 3.9-.2 1.1.1 2.2.7 3 .6.7 1.4 1 2.5 1 1.7 0 2.7-1.1 2.7-1.1l-.1.7c0 .1.1.3.2.3h1.9c.3 0 .5-.2.6-.5l1.1-6.7c0-.2-.1-.4-.3-.4z"/><path id="Fill-4_1_" fill="#2790C3" d="M79.5 19.2c-.2 1.1-1.1 1.9-2.2 1.9-.6 0-1-.2-1.3-.5-.3-.3-.4-.8-.3-1.4.2-1.1 1.1-1.9 2.2-1.9.6 0 1 .2 1.3.5.2.4.3.9.3 1.4zm2.7-3.8h-1.9c-.2 0-.3.1-.3.3l-.1.5-.2-.2c-.4-.6-1.4-.8-2.3-.8-2.2 0-4 1.6-4.4 3.9-.2 1.1.1 2.2.7 3 .6.7 1.4 1 2.5 1 1.7 0 2.7-1.1 2.7-1.1l-.1.5c0 .2.1.4.3.4h1.8c.3 0 .5-.2.6-.5l1.1-6.7c-.1-.1-.2-.3-.4-.3z"/><g id="Group-10_1_"><defs><filter id="Adobe_OpacityMaskFilter" filterUnits="userSpaceOnUse" x="54.4" y="15.4" width="9.5" height="10.3"><feColorMatrix values="1 0 0 0 0 0 1 0 0 0 0 0 1 0 0 0 0 0 1 0"/></filter></defs><mask maskUnits="userSpaceOnUse" x="54.4" y="15.4" width="9.5" height="10.3" id="mask-2_4_"><g filter="url(#Adobe_OpacityMaskFilter)"><path id="path-1_4_" fill="#FFF" d="M13 25.6h74v-18H13v18z"/></g></mask><path id="Fill-5_1_" mask="url(#mask-2_4_)" fill="#27346A" d="M63.6 15.4h-2c-.2 0-.4.1-.5.2l-2.7 4-1.2-3.9c-.1-.2-.3-.4-.5-.4h-1.9c-.2 0-.4.2-.3.5l2.2 6.4-2 2.9c-.1.2-.1.4.1.5.1 0 .1.1.2.1h2c.2 0 .4-.1.5-.2l6.6-9.5c.1-.2.1-.4-.1-.5-.3-.1-.4-.1-.4-.1"/><defs><filter id="Adobe_OpacityMaskFilter_1_" filterUnits="userSpaceOnUse" x="82.8" y="11.7" width="4.2" height="11.2"><feColorMatrix values="1 0 0 0 0 0 1 0 0 0 0 0 1 0 0 0 0 0 1 0"/></filter></defs><mask maskUnits="userSpaceOnUse" x="82.8" y="11.7" width="4.2" height="11.2" id="mask-2_3_"><g filter="url(#Adobe_OpacityMaskFilter_1_)"><path id="path-1_3_" fill="#FFF" d="M13 25.6h74v-18H13v18z"/></g></mask><path id="Fill-7_1_" mask="url(#mask-2_3_)" fill="#2790C3" d="M84.5 12l-1.6 10.5c0 .2.1.4.3.4H85c.3 0 .5-.2.6-.5L87 12.1c0-.2-.1-.4-.3-.4h-1.9c-.2 0-.3.2-.3.3"/><defs><filter id="Adobe_OpacityMaskFilter_2_" filterUnits="userSpaceOnUse" x="13.1" y="7.5" width="15.2" height="18.1"><feColorMatrix values="1 0 0 0 0 0 1 0 0 0 0 0 1 0 0 0 0 0 1 0"/></filter></defs><mask maskUnits="userSpaceOnUse" x="13.1" y="7.5" width="15.2" height="18.1" id="mask-2_2_"><g filter="url(#Adobe_OpacityMaskFilter_2_)"><path id="path-1_2_" fill="#FFF" d="M13 25.6h74v-18H13v18z"/></g></mask><path id="Fill-8_1_" mask="url(#mask-2_2_)" fill="#27346A" d="M20.7 24.7l.5-3.5V21c.1-.3.4-.6.7-.6h.5c.7 0 1.4-.1 2-.2.6-.2 1.2-.4 1.7-.8s.9-.8 1.3-1.4c.3-.6.6-1.3.8-2.1.1-.7.2-1.3.1-1.9-.1-.6-.3-1.1-.7-1.5-.2-.2-.5-.4-.8-.6.1-.7.1-1.3 0-1.8s-.4-1-.7-1.4c-.8-.9-2.2-1.4-4.3-1.4h-5.6c-.4 0-.7.3-.8.7l-2.3 15c0 .3.1.5.4.5H17l-.3 1.6c0 .2.1.5.4.5H20c.3 0 .6-.2.7-.6v-.1"/><defs><filter id="Adobe_OpacityMaskFilter_3_" filterUnits="userSpaceOnUse" x="13" y="7.8" width="13.7" height="15.7"><feColorMatrix values="1 0 0 0 0 0 1 0 0 0 0 0 1 0 0 0 0 0 1 0"/></filter></defs><mask maskUnits="userSpaceOnUse" x="13" y="7.8" width="13.7" height="15.7" id="mask-2_1_"><g filter="url(#Adobe_OpacityMaskFilter_3_)"><path id="path-1_1_" fill="#FFF" d="M13 25.6h74v-18H13v18z"/></g></mask><path id="Fill-9_1_" mask="url(#mask-2_1_)" fill="#27346A" d="M18.7 12.3c.1-.3.3-.6.7-.6h4.4c.5 0 1 0 1.4.1.1 0 .2 0 .4.1.2 0 .3.1.5.1l.6.3c.2-1.4 0-2.3-.7-3.2-.8-.9-2.3-1.3-4.2-1.3h-5.6c-.4 0-.7.3-.8.7L13.1 23c0 .3.1.5.4.5H17l1.8-11.4"/></g><path id="Fill-11_1_" fill="#2790C3" d="M26.7 12.4c0 .1 0 .2-.1.3-.7 3.8-3.3 5.1-6.5 5.1h-1.7c-.4 0-.7.3-.8.7l-1.1 6.7c0 .2.1.4.3.5H20c.4 0 .7-.3.7-.6v-.2l.6-3.6v-.2c.1-.3.4-.6.7-.6h.4c2.8 0 5-1.1 5.7-4.4.3-1.4.1-2.5-.6-3.3-.2-.2-.5-.4-.8-.6"/><path id="Fill-12_1_" fill="#1F264F" d="M26 12c-.1 0-.2-.1-.4-.1-.1 0-.2-.1-.4-.1-.4-.1-.9-.1-1.5-.1h-4.4c-.3 0-.6.3-.7.6l-.9 5.9v.2c.1-.4.4-.7.8-.7h1.7c3.2 0 5.8-1.3 6.5-5.1 0-.1 0-.2.1-.3l-.6-.3H26"/></g></g></g></g></svg>